<mxfile host="app.diagrams.net" modified="2024-02-28T17:03:43.304Z" agent="Mozilla/5.0 (Windows NT 10.0; Win64; x64) AppleWebKit/537.36 (KHTML, like Gecko) Chrome/122.0.0.0 Safari/537.36" etag="bdAKvgwniDMNeNfS_K-E" version="23.1.7" type="device">
  <diagram name="Página-1" id="WVZ4gG1SQ5Lka0zeEVl6">
    <mxGraphModel dx="1865" dy="680" grid="1" gridSize="10" guides="1" tooltips="1" connect="1" arrows="1" fold="1" page="1" pageScale="1" pageWidth="827" pageHeight="1169" math="0" shadow="0">
      <root>
        <mxCell id="0" />
        <mxCell id="1" parent="0" />
        <mxCell id="6V8urmeIRhS0I9QnA9Pa-1" value="Entidad relación" style="text;whiteSpace=wrap;fontSize=16;" parent="1" vertex="1">
          <mxGeometry x="352" y="80" width="124" height="20" as="geometry" />
        </mxCell>
        <mxCell id="6V8urmeIRhS0I9QnA9Pa-3" value="Genero_Libros" style="rounded=0;whiteSpace=wrap;html=1;" parent="1" vertex="1">
          <mxGeometry x="260" y="610" width="120" height="60" as="geometry" />
        </mxCell>
        <mxCell id="6V8urmeIRhS0I9QnA9Pa-4" value="Clientes" style="rounded=0;whiteSpace=wrap;html=1;" parent="1" vertex="1">
          <mxGeometry x="70" y="240" width="120" height="60" as="geometry" />
        </mxCell>
        <mxCell id="6V8urmeIRhS0I9QnA9Pa-5" value="Libros" style="rounded=0;whiteSpace=wrap;html=1;" parent="1" vertex="1">
          <mxGeometry x="610" y="610" width="120" height="60" as="geometry" />
        </mxCell>
        <mxCell id="6V8urmeIRhS0I9QnA9Pa-6" value="Prestamos" style="rounded=0;whiteSpace=wrap;html=1;" parent="1" vertex="1">
          <mxGeometry x="610" y="240" width="120" height="60" as="geometry" />
        </mxCell>
        <mxCell id="6V8urmeIRhS0I9QnA9Pa-7" value="Detalles_prestamos" style="rounded=0;whiteSpace=wrap;html=1;" parent="1" vertex="1">
          <mxGeometry x="610" y="430" width="120" height="60" as="geometry" />
        </mxCell>
        <mxCell id="6V8urmeIRhS0I9QnA9Pa-11" value="id_cliente" style="ellipse;whiteSpace=wrap;html=1;" parent="1" vertex="1">
          <mxGeometry x="90" y="150" width="80" height="50" as="geometry" />
        </mxCell>
        <mxCell id="6V8urmeIRhS0I9QnA9Pa-12" value="id_prestamo" style="ellipse;whiteSpace=wrap;html=1;" parent="1" vertex="1">
          <mxGeometry x="638" y="150" width="80" height="50" as="geometry" />
        </mxCell>
        <mxCell id="6V8urmeIRhS0I9QnA9Pa-13" value="id_libros" style="ellipse;whiteSpace=wrap;html=1;" parent="1" vertex="1">
          <mxGeometry x="778" y="620" width="80" height="50" as="geometry" />
        </mxCell>
        <mxCell id="6V8urmeIRhS0I9QnA9Pa-14" value="id_Genero_&lt;br&gt;Libros" style="ellipse;whiteSpace=wrap;html=1;" parent="1" vertex="1">
          <mxGeometry x="200" y="700" width="90" height="50" as="geometry" />
        </mxCell>
        <mxCell id="6V8urmeIRhS0I9QnA9Pa-16" value="Nombre_&lt;br&gt;cliente" style="ellipse;whiteSpace=wrap;html=1;" parent="1" vertex="1">
          <mxGeometry x="-10" y="170" width="90" height="50" as="geometry" />
        </mxCell>
        <mxCell id="6V8urmeIRhS0I9QnA9Pa-17" value="Telefono" style="ellipse;whiteSpace=wrap;html=1;" parent="1" vertex="1">
          <mxGeometry x="-40" y="310" width="90" height="50" as="geometry" />
        </mxCell>
        <mxCell id="6V8urmeIRhS0I9QnA9Pa-18" value="gmail_&lt;br&gt;cliente" style="ellipse;whiteSpace=wrap;html=1;" parent="1" vertex="1">
          <mxGeometry x="-60" y="240" width="90" height="50" as="geometry" />
        </mxCell>
        <mxCell id="6V8urmeIRhS0I9QnA9Pa-19" value="id_Genero_&lt;br&gt;Libros" style="ellipse;whiteSpace=wrap;html=1;" parent="1" vertex="1">
          <mxGeometry x="768" y="400" width="90" height="50" as="geometry" />
        </mxCell>
        <mxCell id="6V8urmeIRhS0I9QnA9Pa-20" value="Titulo_libro" style="ellipse;whiteSpace=wrap;html=1;" parent="1" vertex="1">
          <mxGeometry x="788" y="560" width="90" height="50" as="geometry" />
        </mxCell>
        <mxCell id="6V8urmeIRhS0I9QnA9Pa-21" value="ani_libros" style="ellipse;whiteSpace=wrap;html=1;" parent="1" vertex="1">
          <mxGeometry x="678" y="720" width="90" height="50" as="geometry" />
        </mxCell>
        <mxCell id="6V8urmeIRhS0I9QnA9Pa-22" value="Nombre_&lt;br&gt;genero" style="ellipse;whiteSpace=wrap;html=1;" parent="1" vertex="1">
          <mxGeometry x="299" y="710" width="90" height="50" as="geometry" />
        </mxCell>
        <mxCell id="6V8urmeIRhS0I9QnA9Pa-23" value="id_genero" style="ellipse;whiteSpace=wrap;html=1;" parent="1" vertex="1">
          <mxGeometry x="778" y="690" width="80" height="50" as="geometry" />
        </mxCell>
        <mxCell id="6V8urmeIRhS0I9QnA9Pa-24" value="estado" style="ellipse;whiteSpace=wrap;html=1;" parent="1" vertex="1">
          <mxGeometry x="598" y="690" width="80" height="50" as="geometry" />
        </mxCell>
        <mxCell id="6V8urmeIRhS0I9QnA9Pa-25" value="estado" style="ellipse;whiteSpace=wrap;html=1;" parent="1" vertex="1">
          <mxGeometry x="730" y="310" width="80" height="50" as="geometry" />
        </mxCell>
        <mxCell id="6V8urmeIRhS0I9QnA9Pa-26" value="fecha_&lt;br&gt;inicio" style="ellipse;whiteSpace=wrap;html=1;" parent="1" vertex="1">
          <mxGeometry x="798" y="270" width="80" height="50" as="geometry" />
        </mxCell>
        <mxCell id="6V8urmeIRhS0I9QnA9Pa-27" value="fecha_&lt;br&gt;devolucion" style="ellipse;whiteSpace=wrap;html=1;" parent="1" vertex="1">
          <mxGeometry x="798" y="210" width="80" height="50" as="geometry" />
        </mxCell>
        <mxCell id="6V8urmeIRhS0I9QnA9Pa-28" value="id_cliente" style="ellipse;whiteSpace=wrap;html=1;" parent="1" vertex="1">
          <mxGeometry x="730" y="160" width="80" height="50" as="geometry" />
        </mxCell>
        <mxCell id="6V8urmeIRhS0I9QnA9Pa-29" value="id_libro" style="ellipse;whiteSpace=wrap;html=1;" parent="1" vertex="1">
          <mxGeometry x="768" y="470" width="90" height="50" as="geometry" />
        </mxCell>
        <mxCell id="6V8urmeIRhS0I9QnA9Pa-30" value="id_prestamo" style="ellipse;whiteSpace=wrap;html=1;" parent="1" vertex="1">
          <mxGeometry x="478" y="435" width="90" height="50" as="geometry" />
        </mxCell>
        <mxCell id="6V8urmeIRhS0I9QnA9Pa-31" value="hacer" style="rhombus;whiteSpace=wrap;html=1;" parent="1" vertex="1">
          <mxGeometry x="360" y="230" width="80" height="80" as="geometry" />
        </mxCell>
        <mxCell id="6V8urmeIRhS0I9QnA9Pa-32" value="" style="endArrow=none;html=1;rounded=0;entryX=1;entryY=0.5;entryDx=0;entryDy=0;exitX=0;exitY=0.5;exitDx=0;exitDy=0;" parent="1" source="6V8urmeIRhS0I9QnA9Pa-31" target="6V8urmeIRhS0I9QnA9Pa-4" edge="1">
          <mxGeometry width="50" height="50" relative="1" as="geometry">
            <mxPoint x="90" y="360" as="sourcePoint" />
            <mxPoint x="140" y="310" as="targetPoint" />
          </mxGeometry>
        </mxCell>
        <mxCell id="6V8urmeIRhS0I9QnA9Pa-34" value="1" style="edgeLabel;html=1;align=center;verticalAlign=middle;resizable=0;points=[];" parent="6V8urmeIRhS0I9QnA9Pa-32" connectable="0" vertex="1">
          <mxGeometry x="-0.0097" relative="1" as="geometry">
            <mxPoint as="offset" />
          </mxGeometry>
        </mxCell>
        <mxCell id="6V8urmeIRhS0I9QnA9Pa-33" value="" style="endArrow=none;html=1;rounded=0;entryX=1;entryY=0.5;entryDx=0;entryDy=0;exitX=0;exitY=0.5;exitDx=0;exitDy=0;" parent="1" edge="1">
          <mxGeometry width="50" height="50" relative="1" as="geometry">
            <mxPoint x="610" y="269.57" as="sourcePoint" />
            <mxPoint x="440" y="269.57" as="targetPoint" />
          </mxGeometry>
        </mxCell>
        <mxCell id="6V8urmeIRhS0I9QnA9Pa-35" value="m" style="edgeLabel;html=1;align=center;verticalAlign=middle;resizable=0;points=[];" parent="6V8urmeIRhS0I9QnA9Pa-33" connectable="0" vertex="1">
          <mxGeometry x="0.1078" y="-1" relative="1" as="geometry">
            <mxPoint as="offset" />
          </mxGeometry>
        </mxCell>
        <mxCell id="6V8urmeIRhS0I9QnA9Pa-36" value="" style="endArrow=none;html=1;rounded=0;entryX=0.5;entryY=1;entryDx=0;entryDy=0;exitX=0.56;exitY=0.005;exitDx=0;exitDy=0;exitPerimeter=0;" parent="1" source="6V8urmeIRhS0I9QnA9Pa-6" target="6V8urmeIRhS0I9QnA9Pa-12" edge="1">
          <mxGeometry width="50" height="50" relative="1" as="geometry">
            <mxPoint x="460" y="370" as="sourcePoint" />
            <mxPoint x="510" y="320" as="targetPoint" />
          </mxGeometry>
        </mxCell>
        <mxCell id="6V8urmeIRhS0I9QnA9Pa-37" value="" style="endArrow=none;html=1;rounded=0;entryX=0.214;entryY=0.915;entryDx=0;entryDy=0;entryPerimeter=0;exitX=0.736;exitY=-0.005;exitDx=0;exitDy=0;exitPerimeter=0;" parent="1" source="6V8urmeIRhS0I9QnA9Pa-6" target="6V8urmeIRhS0I9QnA9Pa-28" edge="1">
          <mxGeometry width="50" height="50" relative="1" as="geometry">
            <mxPoint x="690" y="240" as="sourcePoint" />
            <mxPoint x="740" y="190" as="targetPoint" />
          </mxGeometry>
        </mxCell>
        <mxCell id="6V8urmeIRhS0I9QnA9Pa-38" value="" style="endArrow=none;html=1;rounded=0;entryX=0;entryY=0.5;entryDx=0;entryDy=0;exitX=1;exitY=0.25;exitDx=0;exitDy=0;" parent="1" source="6V8urmeIRhS0I9QnA9Pa-6" target="6V8urmeIRhS0I9QnA9Pa-27" edge="1">
          <mxGeometry width="50" height="50" relative="1" as="geometry">
            <mxPoint x="740" y="290" as="sourcePoint" />
            <mxPoint x="790" y="240" as="targetPoint" />
          </mxGeometry>
        </mxCell>
        <mxCell id="6V8urmeIRhS0I9QnA9Pa-39" value="" style="endArrow=none;html=1;rounded=0;entryX=0.012;entryY=0.41;entryDx=0;entryDy=0;entryPerimeter=0;exitX=0.999;exitY=0.596;exitDx=0;exitDy=0;exitPerimeter=0;" parent="1" source="6V8urmeIRhS0I9QnA9Pa-6" target="6V8urmeIRhS0I9QnA9Pa-26" edge="1">
          <mxGeometry width="50" height="50" relative="1" as="geometry">
            <mxPoint x="760" y="310" as="sourcePoint" />
            <mxPoint x="810" y="260" as="targetPoint" />
          </mxGeometry>
        </mxCell>
        <mxCell id="6V8urmeIRhS0I9QnA9Pa-40" value="" style="endArrow=none;html=1;rounded=0;entryX=0.999;entryY=0.994;entryDx=0;entryDy=0;entryPerimeter=0;exitX=0;exitY=0;exitDx=0;exitDy=0;" parent="1" source="6V8urmeIRhS0I9QnA9Pa-25" target="6V8urmeIRhS0I9QnA9Pa-6" edge="1">
          <mxGeometry width="50" height="50" relative="1" as="geometry">
            <mxPoint x="710" y="350" as="sourcePoint" />
            <mxPoint x="760" y="300" as="targetPoint" />
          </mxGeometry>
        </mxCell>
        <mxCell id="6V8urmeIRhS0I9QnA9Pa-41" value="" style="endArrow=none;html=1;rounded=0;entryX=1;entryY=1;entryDx=0;entryDy=0;" parent="1" target="6V8urmeIRhS0I9QnA9Pa-16" edge="1">
          <mxGeometry width="50" height="50" relative="1" as="geometry">
            <mxPoint x="70" y="240" as="sourcePoint" />
            <mxPoint x="50" y="230" as="targetPoint" />
          </mxGeometry>
        </mxCell>
        <mxCell id="6V8urmeIRhS0I9QnA9Pa-42" value="" style="endArrow=none;html=1;rounded=0;entryX=0;entryY=0.5;entryDx=0;entryDy=0;exitX=1;exitY=0.5;exitDx=0;exitDy=0;" parent="1" source="6V8urmeIRhS0I9QnA9Pa-18" target="6V8urmeIRhS0I9QnA9Pa-4" edge="1">
          <mxGeometry width="50" height="50" relative="1" as="geometry">
            <mxPoint y="300" as="sourcePoint" />
            <mxPoint x="50" y="250" as="targetPoint" />
          </mxGeometry>
        </mxCell>
        <mxCell id="6V8urmeIRhS0I9QnA9Pa-43" value="" style="endArrow=none;html=1;rounded=0;entryX=0;entryY=1;entryDx=0;entryDy=0;exitX=1;exitY=0;exitDx=0;exitDy=0;" parent="1" source="6V8urmeIRhS0I9QnA9Pa-17" target="6V8urmeIRhS0I9QnA9Pa-4" edge="1">
          <mxGeometry width="50" height="50" relative="1" as="geometry">
            <mxPoint x="30" y="350" as="sourcePoint" />
            <mxPoint x="80" y="300" as="targetPoint" />
          </mxGeometry>
        </mxCell>
        <mxCell id="6V8urmeIRhS0I9QnA9Pa-44" value="" style="endArrow=none;html=1;rounded=0;entryX=0.5;entryY=1;entryDx=0;entryDy=0;exitX=0.5;exitY=0;exitDx=0;exitDy=0;" parent="1" source="6V8urmeIRhS0I9QnA9Pa-4" target="6V8urmeIRhS0I9QnA9Pa-11" edge="1">
          <mxGeometry width="50" height="50" relative="1" as="geometry">
            <mxPoint x="90" y="260" as="sourcePoint" />
            <mxPoint x="140" y="210" as="targetPoint" />
          </mxGeometry>
        </mxCell>
        <mxCell id="6V8urmeIRhS0I9QnA9Pa-45" value="" style="endArrow=none;html=1;rounded=0;entryX=0.5;entryY=1;entryDx=0;entryDy=0;exitX=0.5;exitY=0;exitDx=0;exitDy=0;" parent="1" source="6V8urmeIRhS0I9QnA9Pa-7" target="6V8urmeIRhS0I9QnA9Pa-6" edge="1">
          <mxGeometry width="50" height="50" relative="1" as="geometry">
            <mxPoint x="600" y="390" as="sourcePoint" />
            <mxPoint x="650" y="340" as="targetPoint" />
          </mxGeometry>
        </mxCell>
        <mxCell id="6V8urmeIRhS0I9QnA9Pa-63" value="m" style="edgeLabel;html=1;align=center;verticalAlign=middle;resizable=0;points=[];" parent="6V8urmeIRhS0I9QnA9Pa-45" connectable="0" vertex="1">
          <mxGeometry x="0.7253" relative="1" as="geometry">
            <mxPoint as="offset" />
          </mxGeometry>
        </mxCell>
        <mxCell id="6V8urmeIRhS0I9QnA9Pa-46" value="" style="endArrow=none;html=1;rounded=0;exitX=1;exitY=0.5;exitDx=0;exitDy=0;" parent="1" source="6V8urmeIRhS0I9QnA9Pa-30" edge="1">
          <mxGeometry width="50" height="50" relative="1" as="geometry">
            <mxPoint x="560" y="510" as="sourcePoint" />
            <mxPoint x="610" y="460" as="targetPoint" />
          </mxGeometry>
        </mxCell>
        <mxCell id="6V8urmeIRhS0I9QnA9Pa-47" value="" style="endArrow=none;html=1;rounded=0;entryX=0;entryY=0.5;entryDx=0;entryDy=0;exitX=1;exitY=0.75;exitDx=0;exitDy=0;" parent="1" source="6V8urmeIRhS0I9QnA9Pa-7" target="6V8urmeIRhS0I9QnA9Pa-29" edge="1">
          <mxGeometry width="50" height="50" relative="1" as="geometry">
            <mxPoint x="700" y="550" as="sourcePoint" />
            <mxPoint x="750" y="500" as="targetPoint" />
          </mxGeometry>
        </mxCell>
        <mxCell id="6V8urmeIRhS0I9QnA9Pa-48" value="" style="endArrow=none;html=1;rounded=0;entryX=0;entryY=0.5;entryDx=0;entryDy=0;exitX=1;exitY=0.25;exitDx=0;exitDy=0;" parent="1" source="6V8urmeIRhS0I9QnA9Pa-7" target="6V8urmeIRhS0I9QnA9Pa-19" edge="1">
          <mxGeometry width="50" height="50" relative="1" as="geometry">
            <mxPoint x="720" y="470" as="sourcePoint" />
            <mxPoint x="770" y="420" as="targetPoint" />
          </mxGeometry>
        </mxCell>
        <mxCell id="6V8urmeIRhS0I9QnA9Pa-49" value="" style="endArrow=none;html=1;rounded=0;entryX=0.5;entryY=1;entryDx=0;entryDy=0;exitX=0.5;exitY=0;exitDx=0;exitDy=0;" parent="1" source="6V8urmeIRhS0I9QnA9Pa-5" target="6V8urmeIRhS0I9QnA9Pa-7" edge="1">
          <mxGeometry width="50" height="50" relative="1" as="geometry">
            <mxPoint x="630" y="560" as="sourcePoint" />
            <mxPoint x="680" y="510" as="targetPoint" />
          </mxGeometry>
        </mxCell>
        <mxCell id="6V8urmeIRhS0I9QnA9Pa-64" value="1" style="edgeLabel;html=1;align=center;verticalAlign=middle;resizable=0;points=[];" parent="6V8urmeIRhS0I9QnA9Pa-49" connectable="0" vertex="1">
          <mxGeometry x="-0.769" relative="1" as="geometry">
            <mxPoint as="offset" />
          </mxGeometry>
        </mxCell>
        <mxCell id="6V8urmeIRhS0I9QnA9Pa-50" value="" style="endArrow=none;html=1;rounded=0;entryX=1;entryY=0;entryDx=0;entryDy=0;exitX=0;exitY=0.5;exitDx=0;exitDy=0;" parent="1" source="6V8urmeIRhS0I9QnA9Pa-20" target="6V8urmeIRhS0I9QnA9Pa-5" edge="1">
          <mxGeometry width="50" height="50" relative="1" as="geometry">
            <mxPoint x="670" y="720" as="sourcePoint" />
            <mxPoint x="720" y="670" as="targetPoint" />
          </mxGeometry>
        </mxCell>
        <mxCell id="6V8urmeIRhS0I9QnA9Pa-51" value="" style="endArrow=none;html=1;rounded=0;entryX=1;entryY=0.5;entryDx=0;entryDy=0;exitX=0;exitY=0.5;exitDx=0;exitDy=0;" parent="1" source="6V8urmeIRhS0I9QnA9Pa-13" target="6V8urmeIRhS0I9QnA9Pa-5" edge="1">
          <mxGeometry width="50" height="50" relative="1" as="geometry">
            <mxPoint x="720" y="710" as="sourcePoint" />
            <mxPoint x="770" y="660" as="targetPoint" />
          </mxGeometry>
        </mxCell>
        <mxCell id="6V8urmeIRhS0I9QnA9Pa-52" value="" style="endArrow=none;html=1;rounded=0;entryX=1;entryY=1;entryDx=0;entryDy=0;exitX=0.078;exitY=0.228;exitDx=0;exitDy=0;exitPerimeter=0;" parent="1" source="6V8urmeIRhS0I9QnA9Pa-23" target="6V8urmeIRhS0I9QnA9Pa-5" edge="1">
          <mxGeometry width="50" height="50" relative="1" as="geometry">
            <mxPoint x="680" y="710" as="sourcePoint" />
            <mxPoint x="730" y="660" as="targetPoint" />
          </mxGeometry>
        </mxCell>
        <mxCell id="6V8urmeIRhS0I9QnA9Pa-53" value="" style="endArrow=none;html=1;rounded=0;entryX=0.75;entryY=1;entryDx=0;entryDy=0;exitX=0.5;exitY=0;exitDx=0;exitDy=0;" parent="1" source="6V8urmeIRhS0I9QnA9Pa-21" target="6V8urmeIRhS0I9QnA9Pa-5" edge="1">
          <mxGeometry width="50" height="50" relative="1" as="geometry">
            <mxPoint x="670" y="730" as="sourcePoint" />
            <mxPoint x="720" y="680" as="targetPoint" />
          </mxGeometry>
        </mxCell>
        <mxCell id="6V8urmeIRhS0I9QnA9Pa-54" value="" style="endArrow=none;html=1;rounded=0;entryX=0.25;entryY=1;entryDx=0;entryDy=0;exitX=0.5;exitY=0;exitDx=0;exitDy=0;" parent="1" source="6V8urmeIRhS0I9QnA9Pa-24" target="6V8urmeIRhS0I9QnA9Pa-5" edge="1">
          <mxGeometry width="50" height="50" relative="1" as="geometry">
            <mxPoint x="610" y="720" as="sourcePoint" />
            <mxPoint x="660" y="670" as="targetPoint" />
          </mxGeometry>
        </mxCell>
        <mxCell id="6V8urmeIRhS0I9QnA9Pa-55" value="" style="endArrow=none;html=1;rounded=0;entryX=0;entryY=0.5;entryDx=0;entryDy=0;exitX=1;exitY=0.5;exitDx=0;exitDy=0;" parent="1" source="6V8urmeIRhS0I9QnA9Pa-59" target="6V8urmeIRhS0I9QnA9Pa-5" edge="1">
          <mxGeometry width="50" height="50" relative="1" as="geometry">
            <mxPoint x="510" y="690" as="sourcePoint" />
            <mxPoint x="560" y="640" as="targetPoint" />
          </mxGeometry>
        </mxCell>
        <mxCell id="6V8urmeIRhS0I9QnA9Pa-62" value="1" style="edgeLabel;html=1;align=center;verticalAlign=middle;resizable=0;points=[];" parent="6V8urmeIRhS0I9QnA9Pa-55" connectable="0" vertex="1">
          <mxGeometry x="0.8422" y="1" relative="1" as="geometry">
            <mxPoint as="offset" />
          </mxGeometry>
        </mxCell>
        <mxCell id="6V8urmeIRhS0I9QnA9Pa-57" value="" style="endArrow=none;html=1;rounded=0;" parent="1" source="6V8urmeIRhS0I9QnA9Pa-14" edge="1">
          <mxGeometry width="50" height="50" relative="1" as="geometry">
            <mxPoint x="240" y="720" as="sourcePoint" />
            <mxPoint x="290" y="670" as="targetPoint" />
          </mxGeometry>
        </mxCell>
        <mxCell id="6V8urmeIRhS0I9QnA9Pa-58" value="" style="endArrow=none;html=1;rounded=0;exitX=0.5;exitY=0;exitDx=0;exitDy=0;" parent="1" source="6V8urmeIRhS0I9QnA9Pa-22" edge="1">
          <mxGeometry width="50" height="50" relative="1" as="geometry">
            <mxPoint x="300" y="720" as="sourcePoint" />
            <mxPoint x="350" y="670" as="targetPoint" />
          </mxGeometry>
        </mxCell>
        <mxCell id="DrMTTO9WDRkklKVKM3J--1" value="" style="endArrow=none;html=1;rounded=0;entryX=0;entryY=0.5;entryDx=0;entryDy=0;exitX=1;exitY=0.5;exitDx=0;exitDy=0;" edge="1" parent="1" source="6V8urmeIRhS0I9QnA9Pa-3" target="6V8urmeIRhS0I9QnA9Pa-59">
          <mxGeometry width="50" height="50" relative="1" as="geometry">
            <mxPoint x="380" y="640" as="sourcePoint" />
            <mxPoint x="610" y="640" as="targetPoint" />
          </mxGeometry>
        </mxCell>
        <mxCell id="DrMTTO9WDRkklKVKM3J--2" value="m" style="edgeLabel;html=1;align=center;verticalAlign=middle;resizable=0;points=[];" connectable="0" vertex="1" parent="DrMTTO9WDRkklKVKM3J--1">
          <mxGeometry x="-0.8969" y="2" relative="1" as="geometry">
            <mxPoint as="offset" />
          </mxGeometry>
        </mxCell>
        <mxCell id="6V8urmeIRhS0I9QnA9Pa-59" value="tener" style="rhombus;whiteSpace=wrap;html=1;" parent="1" vertex="1">
          <mxGeometry x="450" y="610" width="70" height="80" as="geometry" />
        </mxCell>
      </root>
    </mxGraphModel>
  </diagram>
</mxfile>
